<?xml version="1.0" encoding="utf-8"?>
<!-- Generator: Adobe Illustrator 26.1.0, SVG Export Plug-In . SVG Version: 6.00 Build 0)  -->
<svg version="1.1" id="Calque_1" xmlns="http://www.w3.org/2000/svg" xmlns:xlink="http://www.w3.org/1999/xlink" x="0px" y="0px"
	 viewBox="0 0 700 700" style="enable-background:new 0 0 700 700;" xml:space="preserve">
<g>
	<path d="M596.8,280.2c-0.1-33.4-11.6-65.7-32.6-91.6c7.1-29.6,4.9-60.7-6.4-89.1c-2.2-5.5-6.8-9.6-12.4-11.4
		c-8-2.7-38.1-7.8-99.4,31.9v0c-26.4-7-53.6-10.3-80.9-9.8c-27.3-0.5-54.6,2.8-81,9.8C221.2,79.4,188.5,86,181.9,87.9
		c-5.7,1.8-10.2,6.1-12.4,11.6c-11.3,28.2-13.6,59.3-6.6,88.9c-21.7,25.8-33.2,58.6-32.5,92.3c0,125.7,71.9,163.6,137.8,177
		c-3.4,8.3-5.7,16.9-6.9,25.8c-0.1,0.9-0.1,1.9,0,2.8v34.8c-60,5-72.8-30.1-74.1-34.1v0c-0.3-0.9-0.6-1.8-1-2.7
		c-11.6-23.6-32-41.8-56.8-50.6c-10.4-3.5-21.7,2.1-25.2,12.6c-3.5,10.4,2.1,21.7,12.6,25.2c13.8,5,25.2,14.8,32.3,27.6
		c8,25.8,40.5,66.6,112,62v32.7c0,11,8.9,19.9,19.9,19.9c11,0,19.9-8.9,19.9-19.9v-106c1.5-11.6,6.5-22.4,14.4-31
		c5.6-5.3,7.7-13.4,5.2-20.7c-2.4-7.3-8.9-12.6-16.6-13.4c-69.3-8.1-133.4-30.9-133.4-142.8h0c-0.9-27.3,9.6-53.8,29.1-72.9
		c5.3-5.7,7-13.8,4.5-21.1c-6.7-19.4-7.1-40.5-1.3-60.2c24.4,5.5,47.3,16.2,67.1,31.5c5.2,3.4,11.6,4.3,17.5,2.4
		c25.3-7.7,51.6-11.3,77.9-10.6c26.3-0.7,52.6,2.9,77.8,10.6c5.9,1.9,12.3,1,17.5-2.4c19.1-14.6,41-25.3,64.3-31.2
		c5.8,19.9,5.3,41.2-1.5,60.8c-2.3,6.7-0.8,14,3.9,19.3c18.8,20.1,29.5,46.5,29.9,74c0,111.7-67.4,134.9-133.4,142.8
		c-8.1,0.9-14.8,6.7-16.9,14.5c-2.1,7.9,0.8,16.2,7.4,21c7,5.3,15.2,20.3,15.2,45.4v90c0,11,8.9,19.9,19.9,19.9
		c11,0,19.9-8.9,19.9-19.9v-90c0.2-15.8-2.7-31.5-8.5-46.2C514.3,446.1,596.8,411,596.8,280.2L596.8,280.2z"/>
</g>
</svg>
