<?xml version="1.0" encoding="utf-8"?>
<!-- Generator: Adobe Illustrator 26.1.0, SVG Export Plug-In . SVG Version: 6.00 Build 0)  -->
<svg version="1.1" id="Calque_1" xmlns="http://www.w3.org/2000/svg" xmlns:xlink="http://www.w3.org/1999/xlink" x="0px" y="0px"
	 viewBox="0 0 700 700" style="enable-background:new 0 0 700 700;" xml:space="preserve">
<g>
	<path d="M602,186.6c0-1.3-0.2-2.5-0.6-3.8c-0.1-0.2-0.2-0.3-0.2-0.4c-0.2-0.4-0.4-0.8-0.6-1.2c-0.5-0.9-1-1.7-1.6-2.4
		c-0.3-0.4-0.7-0.7-1-1c-0.7-0.6-1.5-1.2-2.4-1.6c-0.4-0.2-0.8-0.4-1.2-0.6c-1.3-0.5-2.7-0.9-4.2-0.9l-480,0c-1.5,0-2.9,0.3-4.2,0.9
		c-0.4,0.2-0.8,0.4-1.2,0.6c-0.9,0.4-1.7,1-2.4,1.6c-0.4,0.3-0.7,0.6-1,1c-0.6,0.7-1.2,1.5-1.6,2.4c-0.2,0.4-0.5,0.8-0.6,1.2
		c-0.1,0.2-0.2,0.3-0.2,0.4c-0.4,1.2-0.6,2.5-0.6,3.8c0,0,0,0,0,0.1v326.8c0,6.6,5.4,12,12,12h480c6.6,0,12-5.4,12-12L602,186.6
		C602,186.6,602,186.6,602,186.6L602,186.6z M122,501.4V210.8l220.8,168.7c2.2,1.6,4.7,2.5,7.3,2.5c2.6,0,5.1-0.8,7.3-2.5L578,210.8
		v290.6H122L122,501.4z M350,354.9L145.4,198.6h409.2L350,354.9z"/>
</g>
</svg>
