<?xml version="1.0" encoding="utf-8"?>
<!-- Generator: Adobe Illustrator 26.1.0, SVG Export Plug-In . SVG Version: 6.00 Build 0)  -->
<svg version="1.1" id="Calque_1" xmlns="http://www.w3.org/2000/svg" xmlns:xlink="http://www.w3.org/1999/xlink" x="0px" y="0px"
	 viewBox="0 0 700 700" style="enable-background:new 0 0 700 700;" xml:space="preserve">
<path d="M161.7,83.7c-2.5,0-5,1-6.8,2.8c-1.8,1.8-2.8,4.2-2.8,6.8v513.5c0,2.5,1,5,2.8,6.8c1.8,1.8,4.2,2.8,6.8,2.8h376.6
	c5.2,0,9.5-4.3,9.5-9.5V208.1c0.1-0.9,0-1.7-0.2-2.6c-0.1-0.3-0.1-0.6-0.2-0.9c-0.2-0.6-0.4-1.2-0.7-1.7c0,0,0,0,0,0
	c0-0.1-0.1-0.1-0.1-0.2c-0.1-0.2-0.3-0.4-0.4-0.6c0-0.1-0.1-0.1-0.1-0.2c-0.1-0.2-0.3-0.4-0.4-0.6c-0.1-0.1-0.1-0.1-0.1-0.2
	c-0.1-0.1-0.2-0.3-0.3-0.4L430.8,86.5c-1.8-1.8-4.2-2.8-6.7-2.8L161.7,83.7z M171.2,102.7h243.4v104.7h0c0,5.2,4.2,9.5,9.5,9.5
	h104.7v380.4H171.2L171.2,102.7z M433.6,116.2l81.7,81.7h-81.7V116.2z M297.5,190.4c-29.7,0-53.9,24.3-53.9,53.9
	c0,17.3,8.3,32.8,21.1,42.6c-24.3,12.1-41,37.1-41,66v47.7c0,2.5,1,5,2.8,6.8c1.8,1.8,4.2,2.8,6.8,2.8h128.6c5.2,0,9.5-4.3,9.5-9.5
	v-47.7c0-28.9-16.7-53.9-41-66c12.8-9.9,21.1-25.3,21.1-42.6C351.4,214.7,327.2,190.4,297.5,190.4L297.5,190.4z M297.5,209.4
	c19.4,0,34.9,15.5,34.9,34.9c0,19.3-15.3,34.7-34.5,34.9c-0.1,0-0.2,0-0.4,0c-0.1,0-0.2,0-0.4,0c-19.2-0.2-34.5-15.6-34.5-34.9
	C262.6,224.9,278.2,209.4,297.5,209.4L297.5,209.4z M297.5,298.2c30.5,0,54.8,24.2,54.8,54.8v38.2H242.7v-38.2
	C242.7,322.4,267,298.2,297.5,298.2L297.5,298.2z M232.8,460.2c-5.2,0-9.5,4.3-9.5,9.5s4.3,9.5,9.5,9.5h234.4c5.3,0,9.5-4.3,9.5-9.5
	s-4.3-9.5-9.5-9.5H232.8z M232.8,529.3c-5.2,0.1-9.3,4.3-9.3,9.5c0,5.2,4.1,9.4,9.3,9.5h234.4c5.2-0.1,9.3-4.3,9.3-9.5
	c0-5.2-4.1-9.4-9.3-9.5H232.8z"/>
</svg>
